
<svg xmlns="http://www.w3.org/2000/svg" xmlns:xlink="http://www.w3.org/1999/xlink" preserveAspectRatio="xMidYMid meet" version="1.0" viewBox="36.3 98.3 447.4 283.0" zoomAndPan="magnify" style="fill: rgb(0, 0, 0);" original_string_length="1653"><g id="__id0_snqkdrltg"><path d="M467.6,201.8L279.3,270v4.5l189.6-68.8C472.1,204.4,470.2,200.5,467.6,201.8z" style="fill: rgb(240, 54, 63);"/></g><g id="__id1_snqkdrltg"><path d="M472.7,171.6l-189.6-69.4c-8.4-3.2-20.6-3.9-25.7-1.9L56.9,173.5c-18.6,6.4-20.6,46.3,2.6,55.3l34.7,12.2 c0,0.6,0,0.6,0,1.3c-6.4,11.6-9,25.7-10.9,44.4c-4.5,3.2-7.7,7.7-7.7,13.5c0,1.9,0.6,3.9,1.3,5.8c-10.3,14.1-19.9,23.8-29.6,28.9 c1.9,1.9,3.2,4.5,5.1,6.4c4.5-1.9,9-4.5,12.2-8.4c-2.6,4.5-5.1,8.4-9,11.6c8.4,7.1,18.6,10.3,32.8,9.6c9.6-16.1,13.5-30.2,12.2-42.4 c3.9-2.6,5.8-7.1,5.8-11.6c0-5.1-2.6-9.6-6.4-12.2c1.9-16.7,4.5-28.9,9-37.9c5.1-9.6,12.9-16.7,25.1-21.9L264.5,180 c4.5-1.9,6.4-6.4,5.1-10.9c-1.9-3.9-5.8-6.4-10.3-5.1c14.1-5.1,25.7,16.7,10.3,23.1l-130.5,48.2c-9,3.9-15.4,9-20.6,14.8l7.1,2.6 v73.3c-0.6,33.4,75.8,54.7,142,55.3c63,0,131.7-23.1,130.5-55.3v-63.7l-123.4,37.3l200.5-73.3c5.8-1.9,2.6-7.7-1.9-5.8l-192.8,69.4 c-22.5,3.2-25.1-23.8-7.7-34.1c5.1-3.2,29.6-10.9,36.6-13.5l168.4-61.7C483.7,178.7,481.1,174.2,472.7,171.6z" style="fill: rgb(240, 54, 63);"/></g><g id="__id2_snqkdrltg"><path d="M467.6,192.2l-188.3,68.2v4.5L468.9,196C472.1,194.8,470.2,190.9,467.6,192.2z" style="fill: rgb(240, 54, 63);"/></g><g id="__id3_snqkdrltg"><path d="M467.6,211.5l-188.3,68.2v4.5l189.6-68.8C472.1,214,470.2,210.2,467.6,211.5z" style="fill: rgb(240, 54, 63);"/></g></svg>